# xmcd CD database file generated by grip 1.9
# 
# Track frame offsets:
#       150
#       14945
#       30140
#       44122
#       59350
#       73485
#       87317
#       109527
#       121130
#       132677
# 
# Disc length: 1933 seconds
# 
# Revision: 3
# Processed by: cddbd v1.4b41PL1 Copyright (c) Steve Scherf et al.
# Submitted via: grip 1.9
# 
DISCID=94078b0a
DTITLE=Aretha Franklin - Don't Cry, Baby
DYEAR=1900
DGENRE=
TTITLE0=Maybe I'm A Fool
TTITLE1=Sweet Lover
TTITLE2=All Night Long
TTITLE3=Don't Cry, Baby
TTITLE4=It Ain't Necessarily So
TTITLE5=God Bless The Child
TTITLE6=Only The Lonley
TTITLE7=Runnin' Out of Fools
TTITLE8=A Mother's Love
TTITLE9=Today I Sing The Blues
EXTD=
EXTT0=
EXTT1=
EXTT2=
EXTT3=
EXTT4=
EXTT5=
EXTT6=
EXTT7=
EXTT8=
EXTT9=
PLAYORDER=
